<svg width="139" height="37" viewBox="0 0 139 37" fill="none" xmlns="http://www.w3.org/2000/svg">
<path fill-rule="evenodd" clip-rule="evenodd" d="M24.197 17.4963C24.5585 17.4963 24.8515 17.2032 24.8515 16.8417V14.2672C24.8515 13.9057 24.5585 13.6127 24.197 13.6127H19.9427C19.5812 13.6127 19.2881 13.9057 19.2881 14.2672V16.8417C19.2881 17.2032 19.5812 17.4963 19.9427 17.4963H24.197ZM16.3424 20.1581C16.3424 19.7966 16.6355 19.5036 16.997 19.5036H21.2732C21.6347 19.5036 21.9278 19.7966 21.9278 20.1581V22.7327C21.9278 23.0942 21.6347 23.3872 21.2732 23.3872H16.997C16.6355 23.3872 16.3424 23.0942 16.3424 22.7327V20.1581ZM16.2362 24.1497C16.2362 23.7882 15.9431 23.4952 15.5817 23.4952H12.1104C11.5277 23.4952 11.2355 24.1994 11.647 24.612L15.1182 28.0919C15.5303 28.505 16.2362 28.2132 16.2362 27.6296V24.1497ZM11.8016 18.1238C11.39 18.5364 11.6822 19.2406 12.265 19.2406H15.3608C15.7223 19.2406 16.0154 18.9476 16.0154 18.5861V15.4825C16.0154 14.899 15.3095 14.6071 14.8974 15.0202L11.8016 18.1238ZM25.2005 21.496C25.2005 22.0795 25.9064 22.3714 26.3185 21.9583L29.5476 18.7211C29.9591 18.3085 29.6669 17.6043 29.0841 17.6043H25.8551C25.4936 17.6043 25.2005 17.8973 25.2005 18.2588V21.496ZM28.9296 13.3497C29.5124 13.3497 29.8046 12.6455 29.393 12.2329L26.0764 8.90796C25.6643 8.49482 24.9584 8.78668 24.9584 9.37021V12.6952C24.9584 13.0567 25.2514 13.3497 25.6129 13.3497H28.9296Z" fill="black"/>
<path d="M46.1276 12.2153C47.0285 12.2153 47.8174 12.3791 48.4944 12.7067C49.1715 13.0343 49.6929 13.4929 50.0587 14.0826C50.43 14.6668 50.6156 15.3384 50.6156 16.0973C50.6156 16.8562 50.43 17.5305 50.0587 18.1202C49.6929 18.7044 49.1715 19.1603 48.4944 19.4878C47.8174 19.8154 47.0285 19.9792 46.1276 19.9792H41.787V24.5H39.6249V12.2153H46.1276ZM46.0457 18.112C46.5316 18.112 46.952 18.0301 47.3069 17.8663C47.6673 17.7025 47.943 17.4704 48.1341 17.1701C48.3252 16.8644 48.4207 16.5068 48.4207 16.0973C48.4207 15.6878 48.3252 15.3329 48.1341 15.0326C47.943 14.7269 47.6673 14.4921 47.3069 14.3283C46.952 14.1645 46.5316 14.0826 46.0457 14.0826H41.787V18.112H46.0457ZM60.3467 22.1987C59.8663 22.9958 59.2575 23.6182 58.5204 24.0659C57.7833 24.5082 56.9698 24.7293 56.0799 24.7293C55.1844 24.7293 54.3846 24.5273 53.6802 24.1233C52.9759 23.7138 52.4272 23.1405 52.0341 22.4034C51.641 21.6663 51.4444 20.8201 51.4444 19.8646C51.4444 18.9091 51.641 18.0628 52.0341 17.3257C52.4272 16.5887 52.9759 16.0181 53.6802 15.6141C54.3846 15.2046 55.1844 14.9998 56.0799 14.9998C56.9753 14.9998 57.7888 15.221 58.5204 15.6632C59.2575 16.1055 59.8663 16.7252 60.3467 17.5223L60.5842 15.2292H62.7791L62.2877 19.8646L62.7791 24.5H60.5842L60.3467 22.1987ZM53.6065 19.8646C53.6065 20.4761 53.7321 21.0221 53.9833 21.5025C54.2399 21.983 54.5948 22.357 55.0479 22.6245C55.5011 22.8921 56.0143 23.0258 56.5876 23.0258C57.1609 23.0258 57.6987 22.8948 58.201 22.6327C58.7088 22.3652 59.1565 21.9939 59.5441 21.5189C59.9372 21.0439 60.2512 20.4925 60.486 19.8646C60.2512 19.2422 59.9372 18.6934 59.5441 18.2184C59.1565 17.7434 58.7088 17.3722 58.201 17.1046C57.6987 16.8371 57.1609 16.7033 56.5876 16.7033C56.0143 16.7033 55.5011 16.8398 55.0479 17.1128C54.5948 17.3803 54.2399 17.7543 53.9833 18.2348C53.7321 18.7098 53.6065 19.2531 53.6065 19.8646ZM66.5154 15.2292L66.9331 17.7844C67.2225 16.9217 67.6675 16.242 68.2681 15.7451C68.8741 15.2483 69.6166 14.9998 70.4957 14.9998C70.7141 14.9998 70.9379 15.0162 71.1672 15.049C71.3966 15.0763 71.5986 15.1145 71.7733 15.1636V17.0309C71.533 16.9654 71.271 16.9163 70.9871 16.8835C70.7086 16.8507 70.4411 16.8344 70.1845 16.8344C69.5784 16.8344 69.0406 16.9681 68.5711 17.2357C68.1015 17.5032 67.733 17.899 67.4655 18.4232C67.2034 18.9419 67.0723 19.5697 67.0723 20.3068V24.5H64.943V18.1939L64.3861 15.2292H66.5154ZM81.1731 22.1987C80.6926 22.9958 80.0839 23.6182 79.3468 24.0659C78.6097 24.5082 77.7962 24.7293 76.9062 24.7293C76.0108 24.7293 75.2109 24.5273 74.5066 24.1233C73.8023 23.7138 73.2536 23.1405 72.8605 22.4034C72.4674 21.6663 72.2708 20.8201 72.2708 19.8646C72.2708 18.9091 72.4674 18.0628 72.8605 17.3257C73.2536 16.5887 73.8023 16.0181 74.5066 15.6141C75.2109 15.2046 76.0108 14.9998 76.9062 14.9998C77.8016 14.9998 78.6152 15.221 79.3468 15.6632C80.0839 16.1055 80.6926 16.7252 81.1731 17.5223L81.4106 15.2292H83.6055L83.1141 19.8646L83.6055 24.5H81.4106L81.1731 22.1987ZM74.4329 19.8646C74.4329 20.4761 74.5585 21.0221 74.8096 21.5025C75.0663 21.983 75.4211 22.357 75.8743 22.6245C76.3275 22.8921 76.8407 23.0258 77.414 23.0258C77.9873 23.0258 78.5251 22.8948 79.0274 22.6327C79.5352 22.3652 79.9829 21.9939 80.3705 21.5189C80.7636 21.0439 81.0776 20.4925 81.3123 19.8646C81.0776 19.2422 80.7636 18.6934 80.3705 18.2184C79.9829 17.7434 79.5352 17.3722 79.0274 17.1046C78.5251 16.8371 77.9873 16.7033 77.414 16.7033C76.8407 16.7033 76.3275 16.8398 75.8743 17.1128C75.4211 17.3803 75.0663 17.7543 74.8096 18.2348C74.5585 18.7098 74.4329 19.2531 74.4329 19.8646ZM92.3071 12.2153C93.208 12.2153 93.997 12.3791 94.674 12.7067C95.351 13.0343 95.8724 13.4929 96.2382 14.0826C96.6095 14.6668 96.7951 15.3384 96.7951 16.0973C96.7951 16.8562 96.6095 17.5305 96.2382 18.1202C95.8724 18.7044 95.351 19.1603 94.674 19.4878C93.997 19.8154 93.208 19.9792 92.3071 19.9792H87.9665V24.5H85.8044V12.2153H92.3071ZM92.2252 18.112C92.7112 18.112 93.1316 18.0301 93.4865 17.8663C93.8468 17.7025 94.1225 17.4704 94.3136 17.1701C94.5047 16.8644 94.6003 16.5068 94.6003 16.0973C94.6003 15.6878 94.5047 15.3329 94.3136 15.0326C94.1225 14.7269 93.8468 14.4921 93.4865 14.3283C93.1316 14.1645 92.7112 14.0826 92.2252 14.0826H87.9665V18.112H92.2252ZM103.21 24.7293C102.096 24.7293 101.111 24.5273 100.254 24.1233C99.4019 23.7138 98.7385 23.1405 98.2635 22.4034C97.794 21.6663 97.5592 20.8201 97.5592 19.8646C97.5592 18.9091 97.794 18.0628 98.2635 17.3257C98.7385 16.5887 99.4019 16.0181 100.254 15.6141C101.111 15.2046 102.096 14.9998 103.21 14.9998C104.324 14.9998 105.307 15.2046 106.158 15.6141C107.016 16.0181 107.679 16.5887 108.149 17.3257C108.624 18.0628 108.861 18.9091 108.861 19.8646C108.861 20.8201 108.624 21.6663 108.149 22.4034C107.679 23.1405 107.016 23.7138 106.158 24.1233C105.307 24.5273 104.324 24.7293 103.21 24.7293ZM99.7213 19.8646C99.7213 20.5143 99.8633 21.0794 100.147 21.5599C100.431 22.0403 100.835 22.4116 101.359 22.6737C101.883 22.9303 102.5 23.0586 103.21 23.0586C103.92 23.0586 104.537 22.9303 105.061 22.6737C105.585 22.4116 105.989 22.0403 106.273 21.5599C106.557 21.0794 106.699 20.5143 106.699 19.8646C106.699 19.2203 106.557 18.658 106.273 18.1775C105.989 17.697 105.585 17.3257 105.061 17.0637C104.537 16.8016 103.92 16.6706 103.21 16.6706C102.5 16.6706 101.883 16.8016 101.359 17.0637C100.835 17.3257 100.431 17.697 100.147 18.1775C99.8633 18.658 99.7213 19.2203 99.7213 19.8646ZM112.279 15.2292L112.697 17.7844C112.986 16.9217 113.431 16.242 114.032 15.7451C114.638 15.2483 115.38 14.9998 116.259 14.9998C116.478 14.9998 116.702 15.0162 116.931 15.049C117.16 15.0763 117.362 15.1145 117.537 15.1636V17.0309C117.297 16.9654 117.035 16.9163 116.751 16.8835C116.472 16.8507 116.205 16.8344 115.948 16.8344C115.342 16.8344 114.804 16.9681 114.335 17.2357C113.865 17.5032 113.497 17.899 113.229 18.4232C112.967 18.9419 112.836 19.5697 112.836 20.3068V24.5H110.707V18.1939L110.15 15.2292H112.279ZM117.925 15.9007L119.907 15.393L120.792 12.805H122.037V15.2292H126.345V16.8671H122.037V20.8801C122.037 21.3988 122.108 21.811 122.25 22.1168C122.397 22.4225 122.624 22.6436 122.929 22.7801C123.241 22.9112 123.653 22.9767 124.166 22.9767C124.636 22.9767 125.056 22.9276 125.427 22.8293C125.799 22.7255 126.159 22.5727 126.508 22.3707V24.1233C126.192 24.2871 125.774 24.429 125.255 24.5491C124.737 24.6693 124.221 24.7293 123.707 24.7293C122.403 24.7293 121.442 24.4181 120.825 23.7957C120.213 23.1678 119.907 22.3051 119.907 21.2077V16.8671H117.925V15.9007Z" fill="black"/>
</svg>
